{"title":"Body of Proof S1D1 (DD5.1 NL Subs) Hornigold TBS","uid":6357457,"size":4498256144,"categoryP":"video","categoryS":"tv_shows","magnet":"?xt=urn:btih:b46ca975a9c573c8f266625bf3f6db8dce30e43b&amp;dn=Body+of+Proof+S1D1+%28DD5.1+NL+Subs%29+Hornigold+TBS&amp;tr=udp%3A%2F%2Ftracker.openbittorrent.com%3A80&amp;tr=udp%3A%2F%2Fopen.demonii.com%3A1337&amp;tr=udp%3A%2F%2Ftracker.coppersurfer.tk%3A6969&amp;tr=udp%3A%2F%2Fexodus.desync.com%3A6969","seeders":1,"leechers":1,"uploader":"Hornigold","files":-1,"time":1304192563,"description":"Body of Proof S1D1 HDTV DD5.1 NL Subs\n\nVerenigde Staten ~ 60 minuten per aflevering ~ gecreÃƒÂ«erd door Chris Murphey ~ met Windell Middlebrooks, Dana Delany en Jeri Ryan (7 of 9).\n\nDokter Megan Hunt was in een eerder leven een gerespecteerd neurochirurg. Mede door haar drukke professionele activiteiten eindigde haar huwelijk in een scheiding en verloor ze de voogdij over haar dochter aan haar ex-man. Na haar echtscheiding had ze een auto-ongeluk met als gevolg dat ze een verminderd gevoel in haar handen kreeg. Toen een van haar patiÃƒÂ«nten op de operatietafel stierf stopte ze met de chirurgie. Ze wordt schouwarts bij de politie van Philadelphia en met haar gedrevenheid lost ze moordzaken op, maar diezelfde gedrevenheid wekt ook irritaties op bij haar collega's.\n\nBestandsformaat: Video_TS map\nBestandsgrootte: 4,18 GB\nTaal: Engels in DD5.1\nOndertitelingen: Nederlands ~ Nederlands custom door wivr (in te stellen)\nCategorie : Serie\nBeelformaat: 16:9 NTSC\nBron : HDTV\nMenu: Ja, custom door Darkling\nExtra's: Nee\nGenre : Misdaad ~ Drama\nWeblink : &lt;a href=&quot; http://www.imdb.com/title/tt1587669/&quot; rel=&quot;nofollow&quot; target=&quot;_NEW&quot;&gt; http://www.imdb.com/title/tt1587669/&lt;/a&gt;\nExtra info: Deze dvd bevat 4 afleveringen, inclusief de pilot. De komende afleveringen worden als .mkv gepost.\n\n~~~~~~~~~~~~~~~~~~~~~~\nUSA  ~ 60 minutes per episode ~ created by Chris Murphy ~ with Windell Middlebrooks, Dana Delany and Jeri Ryan\n\nThe series stars Delany as Dr. Megan Hunt, a medical examiner. The show will focus on Hunt's efforts to balance the demands of her professional life with her personal life.[2] Hunt was a top-flight neurosurgeon until she had a life-changing automobile accident. Her boss is the city's Chief Medical Examiner, played by Jeri Ryan.\n\nFile Format: .MKV\nFile size: 1.40 GB\nLanguage: English in DD5.1\nSubtitles: Dutch ~ Dutch custom by wivr (selectable)\nCategory : Series\nFormat : 16:9 NTSC\nSource : HDTV\nMenu: Yes, custom by Darkling\nExtras: No\nGenre : Drama ~ Crime\nWeblink : &lt;a href=&quot; http://www.imdb.com/title/tt1587669/&quot; rel=&quot;nofollow&quot; target=&quot;_NEW&quot;&gt; http://www.imdb.com/title/tt1587669/&lt;/a&gt;\nExtra info: This dvd contains 4 episodes, including the pilot. Next episodes will be posted in .mkv quality.\n\nVideo and audio information:\n~~~~~~~~~~~~~~~~~~~~~~\nVideo\nID                               : 224 (0xE0)\nFormat                           : MPEG Video\nFormat version                   : Version 2\nFormat profile                   : Main@Main\nFormat settings, BVOP            : Yes\nFormat settings, Matrix          : Default\nDuration                         : 43mn 25s\nBit rate mode                    : Variable\nBit rate                         : 2 759 Kbps\nNominal bit rate                 : 9 424 Kbps\nWidth                            : 720 pixels\nHeight                           : 480 pixels\nDisplay aspect ratio             : 16:9\nFrame rate                       : 23.976 fps\nStandard                         : NTSC\nColor space                      : YUV\nChroma subsampling               : 4:2:0\nBit depth                        : 8 bits\nScan type                        : Progressive\nScan order                       : 2:3 Pulldown\nCompression mode                 : Lossy\nBits/(Pixel*Frame)               : 0.333\nStream size                      : 857 MiB (86%)\n\nAudio\nID                               : 189 (0xBD)-128 (0x80)\nFormat                           : AC-3\nFormat/Info                      : Audio Coding 3\nMode extension                   : CM (complete main)\nMuxing mode                      : DVD-Video\nDuration                         : 43mn 25s\nBit rate mode                    : Constant\nBit rate                         : 384 Kbps\nChannel(s)                       : 6 channels\nChannel positions                : Front: L C R, Side: L R, LFE\nSampling rate                    : 48.0 KHz\nBit depth                        : 16 bits\nCompression mode                 : Lossy\nStream size                      : 119 MiB (12%)\n\n~~~~~~~~~~~~~~~\nHornigold TBS\n~~~~~~~~~~~~~~~","torrent":{"xt":"urn:btih:b46ca975a9c573c8f266625bf3f6db8dce30e43b","amp;dn":"Body+of+Proof+S1D1+%28DD5.1+NL+Subs%29+Hornigold+TBS","amp;tr":["udp%3A%2F%2Ftracker.openbittorrent.com%3A80","udp%3A%2F%2Fopen.demonii.com%3A1337","udp%3A%2F%2Ftracker.coppersurfer.tk%3A6969","udp%3A%2F%2Fexodus.desync.com%3A6969"],"infoHash":"b46ca975a9c573c8f266625bf3f6db8dce30e43b","infoHashBuffer":{"type":"Buffer","data":[180,108,169,117,169,197,115,200,242,102,98,91,243,246,219,141,206,48,228,59]},"announce":[],"urlList":[]}}